<?xml version="1.0" encoding="UTF-8"?>
<!DOCTYPE svg PUBLIC "-//W3C//DTD SVG 1.1//EN" "http://www.w3.org/Graphics/SVG/1.1/DTD/svg11.dtd">
<!-- Creator: CorelDRAW -->
<svg xmlns="http://www.w3.org/2000/svg" xml:space="preserve" width="6.82666in" height="6.82666in" style="shape-rendering:geometricPrecision; text-rendering:geometricPrecision; image-rendering:optimizeQuality; fill-rule:evenodd; clip-rule:evenodd"
viewBox="0 0 6.82666 6.82666"
 xmlns:xlink="http://www.w3.org/1999/xlink">
 <defs>
  <style type="text/css">
   <![CDATA[
    .str0 {stroke:#424242;stroke-width:0.00333465;stroke-linecap:round;stroke-linejoin:round}
    .fil2 {fill:none}
    .fil10 {fill:#949BA1}
    .fil3 {fill:#B3B9BD}
    .fil1 {fill:#C2185B}
    .fil4 {fill:#CCD1D4}
    .fil6 {fill:#CFB014}
    .fil0 {fill:#EC407A}
    .fil9 {fill:#F0D800}
    .fil5 {fill:#F6CE03}
    .fil8 {fill:#FAE204}
    .fil7 {fill:#CFB014;fill-rule:nonzero}
   ]]>
  </style>
   <clipPath id="id0">
    <path d="M3.41333 0c1.88513,0 3.41333,1.5282 3.41333,3.41333 0,1.88513 -1.5282,3.41333 -3.41333,3.41333 -1.88513,0 -3.41333,-1.5282 -3.41333,-3.41333 0,-1.88513 1.5282,-3.41333 3.41333,-3.41333z"/>
   </clipPath>
 </defs>
 <g id="Layer_x0020_1">
  <metadata id="CorelCorpID_0Corel-Layer"/>
  <path class="fil0" d="M3.41333 0c1.88513,0 3.41333,1.5282 3.41333,3.41333 0,1.88513 -1.5282,3.41333 -3.41333,3.41333 -1.88513,0 -3.41333,-1.5282 -3.41333,-3.41333 0,-1.88513 1.5282,-3.41333 3.41333,-3.41333z"/>
  <g style="clip-path:url(#id0)">
   <g id="_414983264">
    <g>
     <polygon id="_3548815521" class="fil1" points="4.77094,2.4297 8.5572,6.21598 8.58938,6.25528 8.62014,6.29572 8.64941,6.33727 8.67717,6.37994 8.70335,6.42372 8.72791,6.46861 8.75079,6.5146 8.77195,6.56169 8.79134,6.60987 8.80891,6.65915 5.02264,2.87287 5.00507,2.8236 4.98568,2.77542 4.96452,2.72833 4.94164,2.68234 4.91708,2.63745 4.8909,2.59367 4.86315,2.551 4.83387,2.50944 4.80311,2.46901 "/>
     <polygon id="_354881288" class="fil1" points="3.70673,1.64233 7.493,5.4286 7.49748,5.43459 7.50137,5.441 7.50465,5.4478 7.50727,5.45494 7.50919,5.4624 7.51036,5.47013 7.51076,5.47808 3.7245,1.69181 3.72409,1.68385 3.72292,1.67613 3.721,1.66867 3.71838,1.66153 3.71511,1.65473 3.71121,1.64831 "/>
     <polygon id="_354882200" class="fil1" points="3.7245,1.69181 7.51076,5.47808 7.51076,5.62709 3.7245,1.84082 "/>
     <polygon id="_354882248" class="fil1" points="5.27816,3.32012 9.06443,7.10639 9.06574,7.11422 9.06626,7.12198 9.06599,7.12965 9.06498,7.13716 9.06326,7.14448 9.06085,7.15155 9.05778,7.15834 9.05408,7.16479 9.04978,7.17086 9.04492,7.1765 9.03952,7.18167 9.03361,7.18632 9.02722,7.1904 9.02038,7.19387 9.01312,7.19667 9.00547,7.19877 5.2192,3.4125 5.22685,3.4104 5.23411,3.40759 5.24095,3.40413 5.24734,3.40005 5.25325,3.3954 5.25865,3.39023 5.26352,3.38459 5.26781,3.37852 5.27151,3.37207 5.27458,3.36528 5.27699,3.3582 5.27872,3.35089 5.27972,3.34337 5.27999,3.33571 5.27948,3.32794 "/>
     <polygon id="_354881864" class="fil1" points="5.2192,3.4125 9.00547,7.19877 8.9519,7.21047 8.89805,7.2218 8.84393,7.23276 8.78956,7.24335 8.73494,7.25357 8.68008,7.26341 8.62499,7.27289 8.56968,7.28199 8.51416,7.29072 8.45843,7.29907 8.40252,7.30706 8.34641,7.31468 8.29013,7.32192 8.23369,7.3288 8.17709,7.3353 8.12033,7.34143 8.06345,7.34719 8.00643,7.35257 7.94929,7.35759 7.89204,7.36223 7.83468,7.3665 7.77723,7.37041 7.7197,7.37393 7.66209,7.37709 7.60442,7.37988 7.54669,7.38229 7.48891,7.38433 7.43109,7.38601 7.37324,7.38731 7.31537,7.38824 7.25748,7.3888 7.1996,7.38898 3.41333,3.60271 3.47122,3.60252 3.5291,3.60196 3.58697,3.60104 3.64482,3.59974 3.70264,3.59806 3.76042,3.59602 3.81815,3.59361 3.87582,3.59082 3.93343,3.58766 3.99096,3.58413 4.04841,3.58023 4.10577,3.57596 4.16302,3.57131 4.22016,3.5663 4.27718,3.56091 4.33407,3.55516 4.39082,3.54903 4.44742,3.54252 4.50387,3.53565 4.56014,3.52841 4.61625,3.52079 4.67217,3.5128 4.72789,3.50444 4.78341,3.49572 4.83872,3.48661 4.89381,3.47714 4.94867,3.4673 5.00329,3.45708 5.05767,3.44649 5.11178,3.43553 5.16563,3.4242 "/>
     <polygon id="_354882608" class="fil1" points="3.41333,3.60271 7.1996,7.38898 7.14171,7.3888 7.08383,7.38824 7.02596,7.38731 6.96811,7.38601 6.91029,7.38433 6.85251,7.38229 6.79478,7.37988 6.73711,7.37709 6.6795,7.37393 6.62196,7.37041 6.56452,7.3665 6.50716,7.36223 6.44991,7.35759 6.39277,7.35257 6.33575,7.34719 6.27886,7.34143 6.22211,7.3353 6.16551,7.3288 6.10906,7.32192 6.05279,7.31468 5.99668,7.30706 5.94076,7.29907 5.88504,7.29072 5.82952,7.28199 5.77421,7.27289 5.71912,7.26341 5.66426,7.25357 5.60964,7.24335 5.55526,7.23276 5.50115,7.2218 5.4473,7.21047 5.39372,7.19877 1.60746,3.4125 1.66103,3.4242 1.71488,3.43553 1.769,3.44649 1.82337,3.45708 1.87799,3.4673 1.93285,3.47714 1.98794,3.48661 2.04325,3.49572 2.09877,3.50444 2.1545,3.5128 2.21041,3.52079 2.26652,3.52841 2.3228,3.53565 2.37924,3.54252 2.43584,3.54903 2.49259,3.55516 2.54948,3.56091 2.6065,3.5663 2.66364,3.57131 2.72089,3.57596 2.77825,3.58023 2.8357,3.58413 2.89323,3.58766 2.95084,3.59082 3.00851,3.59361 3.06624,3.59602 3.12402,3.59806 3.18184,3.59974 3.23969,3.60104 3.29756,3.60196 3.35544,3.60252 "/>
     <polygon id="_354882920" class="fil1" points="1.60746,3.4125 5.39372,7.19877 5.38607,7.19667 5.37881,7.19387 5.37198,7.1904 5.36559,7.18632 5.35968,7.18167 1.57341,3.3954 1.57932,3.40005 1.58571,3.40413 1.59255,3.40759 1.59981,3.4104 "/>
     <polygon id="_354882464" class="fil1" points="5.02264,2.87287 8.80891,6.65915 8.8108,6.66483 8.81266,6.67054 8.8145,6.67625 8.81631,6.68198 8.8181,6.68773 8.81987,6.69349 8.82161,6.69926 8.82332,6.70505 8.82502,6.71085 8.82668,6.71667 8.82832,6.7225 8.82994,6.72834 8.83152,6.7342 8.83309,6.74007 8.83463,6.74596 8.83614,6.75186 8.83763,6.75777 8.83909,6.7637 8.84053,6.76964 8.84194,6.7756 8.84332,6.78157 8.84468,6.78755 8.84601,6.79355 8.84732,6.79956 8.8486,6.80559 8.84985,6.81163 8.85108,6.81769 8.85228,6.82375 8.85346,6.82983 8.85461,6.83593 8.85573,6.84204 8.85682,6.84817 5.07056,3.06189 5.06946,3.05577 5.06834,3.04966 5.06719,3.04356 5.06601,3.03748 5.06481,3.03141 5.06358,3.02536 5.06233,3.01932 5.06105,3.01329 5.05974,3.00728 5.05841,3.00128 5.05705,2.9953 5.05567,2.98933 5.05426,2.98337 5.05282,2.97743 5.05136,2.9715 5.04987,2.96559 5.04836,2.95969 5.04682,2.9538 5.04526,2.94793 5.04367,2.94207 5.04205,2.93622 5.04041,2.9304 5.03875,2.92458 5.03706,2.91878 5.03534,2.91299 5.0336,2.90722 5.03183,2.90146 5.03005,2.89571 5.02823,2.88998 5.02639,2.88426 5.02453,2.87856 "/>
     <polygon id="_354883016" class="fil1" points="5.20029,3.03477 8.98656,6.82104 8.99008,6.82555 8.99357,6.83102 8.99704,6.83739 9.00046,6.84459 9.00386,6.85256 9.00721,6.86123 9.01052,6.87052 9.01377,6.88038 9.01697,6.89073 9.02011,6.9015 9.02318,6.91264 9.02619,6.92406 9.02912,6.93571 9.03198,6.94752 9.03475,6.95941 9.03744,6.97132 9.04004,6.98318 9.04254,6.99493 9.04494,7.0065 9.04724,7.01781 9.04943,7.02881 9.05151,7.03942 9.05347,7.04958 9.05531,7.05922 9.05703,7.06826 9.05861,7.07665 9.06006,7.08432 9.06137,7.0912 9.06254,7.09721 9.06356,7.1023 9.06443,7.10639 5.27816,3.32012 5.27729,3.31603 5.27627,3.31094 5.27511,3.30493 5.2738,3.29805 5.27235,3.29038 5.27076,3.28199 5.26905,3.27294 5.2672,3.26331 5.26524,3.25315 5.26317,3.24254 5.26098,3.23154 5.25868,3.22022 5.25627,3.20866 5.25377,3.19691 5.25117,3.18505 5.24848,3.17313 5.24571,3.16124 5.24285,3.14944 5.23992,3.13779 5.23691,3.12637 5.23384,3.11523 5.2307,3.10446 5.2275,3.09411 5.22425,3.08425 5.22094,3.07496 5.21759,3.06629 5.2142,3.05832 5.21077,3.05112 5.2073,3.04475 5.20381,3.03928 "/>
     <polygon id="_354882488" class="fil1" points="2.65081,4.01785 6.43708,7.80412 6.46694,7.83411 6.49513,7.86619 6.52153,7.90033 6.54602,7.93652 6.56848,7.97474 6.58881,8.01494 2.80254,4.22867 2.78222,4.18846 2.75975,4.15025 2.73526,4.11406 2.70886,4.07991 2.68068,4.04783 "/>
     <polygon id="_354882704" class="fil1" points="5.09472,4.31448 8.88099,8.10075 8.89068,8.11091 8.89988,8.12152 8.90857,8.13257 8.91674,8.14404 8.92435,8.1559 8.93141,8.16814 8.93788,8.18074 8.94375,8.19367 8.949,8.20693 8.9536,8.2205 8.95756,8.23435 8.96083,8.24846 8.96341,8.26283 8.96527,8.27742 8.96641,8.29222 8.96679,8.30722 5.18052,4.52094 5.18014,4.50595 5.179,4.49115 5.17714,4.47656 5.17456,4.46219 5.17129,4.44808 5.16733,4.43423 5.16273,4.42066 5.15748,4.4074 5.15161,4.39446 5.14514,4.38187 5.13809,4.36963 5.13047,4.35776 5.1223,4.3463 5.11361,4.33525 5.10441,4.32464 "/>
     <polygon id="_354882560" class="fil1" points="5.18052,4.52094 8.96679,8.30722 8.96641,8.32221 8.96527,8.33702 8.96341,8.35161 8.96083,8.36597 8.95756,8.38009 8.9536,8.39394 8.949,8.4075 8.94375,8.42076 8.93788,8.4337 8.93141,8.4463 8.92435,8.45854 8.91674,8.4704 8.90857,8.48186 8.89988,8.49291 8.89068,8.50352 8.88099,8.51369 8.87083,8.52338 8.86021,8.53258 8.84917,8.54127 8.8377,8.54943 8.82584,8.55705 8.8136,8.56411 8.801,8.57057 8.78807,8.57644 8.7748,8.58169 8.76124,8.5863 8.74739,8.59025 8.73327,8.59352 8.71891,8.5961 8.70432,8.59797 8.68952,8.5991 8.67452,8.59948 4.88825,4.81321 4.90325,4.81283 4.91805,4.8117 4.93264,4.80983 4.947,4.80725 4.96112,4.80398 4.97497,4.80003 4.98854,4.79542 5.0018,4.79017 5.01474,4.7843 5.02733,4.77783 5.03957,4.77078 5.05143,4.76316 5.0629,4.755 5.07394,4.74631 5.08456,4.73711 5.09472,4.72742 5.10441,4.71725 5.11361,4.70664 5.1223,4.69559 5.13047,4.68413 5.13809,4.67227 5.14514,4.66003 5.15161,4.64743 5.15748,4.63449 5.16273,4.62123 5.16733,4.60767 5.17129,4.59381 5.17456,4.5797 5.17714,4.56533 5.179,4.55074 5.18014,4.53594 "/>
     <polygon id="_354882632" class="fil1" points="4.88825,4.81321 8.67452,8.59948 6.58881,8.59948 2.80254,4.81321 "/>
     <polygon id="_354882728" class="fil1" points="2.08308,4.1754 5.86935,7.96167 5.50633,7.96167 1.72007,4.1754 "/>
     <polygon id="_354882800" class="fil1" points="1.72007,4.1754 5.50633,7.96167 5.50013,7.96144 5.49415,7.96074 5.48839,7.9596 5.48287,7.95805 5.47759,7.9561 5.47256,7.95378 5.46778,7.95111 5.46328,7.94811 5.45904,7.9448 1.67278,4.15853 1.67701,4.16184 1.68152,4.16484 1.68629,4.16751 1.69132,4.16983 1.6966,4.17178 1.70213,4.17333 1.70788,4.17447 1.71387,4.17517 "/>
     <polygon id="_354883592" class="fil1" points="2.80254,4.81321 6.58881,8.59948 6.56802,8.6406 6.54508,8.67957 6.52011,8.71637 6.49324,8.75098 6.46459,8.7834 6.43426,8.81361 6.40238,8.84159 6.36908,8.86733 6.33447,8.89082 6.29867,8.91205 6.2618,8.93099 6.22397,8.94764 6.18532,8.96197 6.14596,8.97398 6.106,8.98366 6.06557,8.99098 6.0248,8.99594 5.98378,8.99852 5.94266,8.9987 5.90154,8.99647 5.86055,8.99182 5.8198,8.98473 5.77942,8.97519 5.73952,8.96319 5.70022,8.9487 5.66165,8.93173 5.62393,8.91224 5.58716,8.89024 5.55148,8.86569 5.517,8.8386 1.73073,5.05233 1.76521,5.07942 1.80089,5.10396 1.83766,5.12597 1.87538,5.14546 1.91395,5.16243 1.95325,5.17692 1.99315,5.18892 2.03353,5.19846 2.07428,5.20555 2.11527,5.2102 2.15639,5.21243 2.19752,5.21224 2.23853,5.20967 2.27931,5.20471 2.31974,5.19739 2.35969,5.18771 2.39906,5.1757 2.4377,5.16137 2.47553,5.14472 2.5124,5.12578 2.5482,5.10455 2.58281,5.08106 2.61611,5.05532 2.64799,5.02733 2.67832,4.99713 2.70698,4.96471 2.73385,4.93009 2.75881,4.8933 2.78175,4.85433 "/>
    </g>
    <path id="_414983336" class="fil1" d="M3.80228 1.85801c0.546091,0.137413 1.04285,0.48348 1.22035,1.01487 0.0202795,0.0606024 0.036374,0.123622 0.0479173,0.18902 0.042252,-0.00980709 0.0843268,-0.0200039 0.126201,-0.0305906 0.0378228,0.0312441 0.0729843,0.250701 0.0814016,0.288819 0.00922835,0.0417874 -0.0171654,0.0831496 -0.0589528,0.092378 -0.569957,0.126803 -1.18845,0.190209 -1.80587,0.190209 -0.617425,0 -1.23592,-0.0634055 -1.80587,-0.190209 -0.0417874,-0.00922835 -0.0681811,-0.0505906 -0.0589528,-0.092378 0.00841339,-0.0381102 0.0435591,-0.257476 0.081378,-0.288799 0.041315,0.0104528 0.0828268,0.0205236 0.124512,0.0302205 0.0879016,-0.536094 0.480874,-0.905878 0.961972,-1.10339 0.126232,-0.061622 0.255669,-0.103303 0.385799,-0.127413l0 -0.138929c0,-0.0429606 0.0348307,-0.0777913 0.0777913,-0.0777913l0.466748 0c0.0429606,0 0.0777913,0.0348307 0.0777913,0.0777913l0 0.149016c0.0260787,0.00544094 0.0520157,0.0114685 0.0777874,0.0180709l0 -0.000885827zm-2.13304 2.18979c0.338173,-0.36102 0.928303,-0.25861 1.1333,0.180874l2.08571 0c0.160894,0 0.292268,0.131382 0.292268,0.292272 0,0.160898 -0.13137,0.292268 -0.292268,0.292268l-2.08571 0c-0.209917,0.450047 -0.806476,0.534874 -1.13669,0.177224 -3.54331e-005,3.54331e-005 -0.0546732,-0.12398 0.0542087,-0.123949l0.36274 -7.87402e-006 0.000129921 0c0.0642953,-0.109528 0.131413,-0.242402 0.199677,-0.345575 -0.0327244,-0.0577992 -0.0664646,-0.115224 -0.0997362,-0.172736 -0.0316102,-0.054752 -0.072252,-0.117476 -0.0997874,-0.172768l-0.363016 0c-0.0672835,0 -0.0986969,-0.0822717 -0.0508189,-0.127602z"/>
   </g>
  </g>
  <path class="fil2" d="M3.41333 0c1.88513,0 3.41333,1.5282 3.41333,3.41333 0,1.88513 -1.5282,3.41333 -3.41333,3.41333 -1.88513,0 -3.41333,-1.5282 -3.41333,-3.41333 0,-1.88513 1.5282,-3.41333 3.41333,-3.41333z"/>
  <path class="fil3" d="M1.66925 4.0478c0.338173,-0.361016 0.928303,-0.258606 1.1333,0.180878l2.08571 0c0.16089,0 0.292268,0.131382 0.292268,0.292272 0,0.160898 -0.13137,0.292268 -0.292268,0.292268l-2.08571 0c-0.209917,0.450047 -0.806476,0.534874 -1.13669,0.177224 -3.54331e-005,3.14961e-005 -0.0546732,-0.12398 0.0542087,-0.123949l0.36274 -7.87402e-006 0.000129921 3.93701e-006c0.0642953,-0.109531 0.131413,-0.242406 0.199677,-0.345579 -0.0327244,-0.0578031 -0.0664646,-0.115224 -0.0997362,-0.172736 -0.0316102,-0.054752 -0.072252,-0.117472 -0.0997874,-0.172768l-0.36302 0c-0.0672835,0 -0.0986929,-0.0822717 -0.050815,-0.127606z"/>
  <path class="fil4" d="M1.85266 4.05385l0.305681 0 0.0335433 0.0673661c0.0282598,0.0567441 0.0644409,0.111138 0.0962244,0.166126 0.0334488,0.057878 0.0673346,0.115504 0.100272,0.173677l0.0367008 0.0648228 -0.0411063 0.062122c-0.0717598,0.108472 -0.130283,0.227717 -0.196228,0.340047l-0.0361417 0.0615669 -0.0701535 -0.00155906 -0.235217 7.87402e-006c0.281362,0.198693 0.692555,0.103122 0.846161,-0.226197l0.0327283 -0.0701693 2.16313 0c0.0938071,0 0.170724,-0.0769134 0.170724,-0.17072 0,-0.0938031 -0.0769252,-0.170728 -0.170724,-0.170728l-2.16313 0 -0.0327283 -0.0701654c-0.154264,-0.330717 -0.554327,-0.41452 -0.839736,-0.226197z"/>
  <path class="fil5" d="M1.7526 3.07275c0.932917,-2.15884 3.11103,-1.14757 3.31988,0.000326772 -1.06831,0.251228 -2.25164,0.251319 -3.31988,-0.000326772z"/>
  <path class="fil6" d="M5.27816 3.32012c0.00922835,0.0417874 -0.0171654,0.0831496 -0.0589528,0.092378 -0.569957,0.126803 -1.18845,0.190209 -1.80587,0.190209 -0.617425,0 -1.23592,-0.0634055 -1.80587,-0.190209 -0.0417874,-0.00922835 -0.0681811,-0.0505906 -0.0589528,-0.092378 0.00841339,-0.0381102 0.0435591,-0.257476 0.081378,-0.288799 0.570165,0.144232 1.17678,0.216319 1.78302,0.216319 0.60652,0 1.21343,-0.0721496 1.78385,-0.216339 0.0378228,0.0312441 0.0729843,0.250701 0.0814016,0.288819z"/>
  <path class="fil7" d="M3.17996 1.61402l0.466748 0c0.0429606,0 0.0777913,0.0348307 0.0777913,0.0777913l0 0.977913c0,0.0429646 -0.0348307,0.0777913 -0.0777913,0.0777913l-0.466748 0c-0.0429606,0 -0.0777913,-0.0348268 -0.0777913,-0.0777913l0 -0.977913c0,-0.0429606 0.0348307,-0.0777913 0.0777913,-0.0777913z"/>
  <line class="fil2 str0" x1="1.63142" y1="4.88459" x2="1.63142" y2= "4.88459" />
  <path class="fil8" d="M1.7526 3.07275c0.101539,-0.653547 0.654803,-1.06211 1.27178,-1.21502l0 0.811988c0,0.0858976 0.069685,0.155583 0.155579,0.155583l0.466748 0c0.0858937,0 0.155579,-0.069685 0.155579,-0.155583l0 -0.811713c0.611921,0.15398 1.16191,0.569953 1.2702,1.21507 -0.532772,0.125291 -1.09601,0.18798 -1.65957,0.18798 -0.563839,0 -1.12733,-0.062752 -1.6603,-0.188307z"/>
  <path class="fil9" d="M1.7526 3.07275c0.0108307,-0.0697047 0.0268425,-0.136594 0.0474764,-0.200713 0.519949,0.11711 1.06654,0.175657 1.61283,0.175657 0.545189,0 1.09069,-0.058311 1.60973,-0.174823 0.0214016,0.064063 0.0381929,0.130799 0.0498425,0.200205 -0.532772,0.125291 -1.09601,0.18798 -1.65957,0.18798 -0.563839,0 -1.12733,-0.062752 -1.6603,-0.188307z"/>
  <path class="fil10" d="M2.86599 4.4226l1.91985 0c0.0427874,0 0.0777874,0.0441299 0.0777874,0.0980827l0 0c0,0.0539528 -0.035,0.0980866 -0.0777874,0.0980866l-1.91985 0c-0.0427874,0 -0.0777913,-0.0441339 -0.0777913,-0.0980866l0 0c0,-0.0539528 0.0350039,-0.0980827 0.0777913,-0.0980827z"/>
 </g>
</svg>
